<svg version="1.2" xmlns="http://www.w3.org/2000/svg" viewBox="0 0 1881 1880" width="1000" height="999">
	<title>ACM-GiGame</title>
	<style>
		.s0 { fill: #00284a } 
		.s1 { fill: #0b5293 } 
		.s2 { fill: #a70075 } 
		.s3 { fill: none;stroke: #faedf7;stroke-width: 40 } 
		.s4 { fill: #eecbe6 } 
	</style>
	<g id="Figura">
		<path id="FondoFigura" class="s0" d="m940.2 1880c-31.6 0-60.1-11.2-84.6-33.2-2.2-2-4-3.9-5.5-5.4l-81.9-81.9-27.7 13.2c-18.6 8.9-37.4 13.4-55.9 13.4q-3.2 0-6.4-0.1-3.1-0.2-6.3-0.6-3.2-0.3-6.3-0.8-3.1-0.5-6.3-1.2c-35.7-7.9-63.9-29.2-81.5-61.7-1.4-2.5-2.5-4.8-3.4-6.6l-132.9-278.3-48.2-23.3-228.2-110.2c-27.1-13-46.9-32.1-59-56.7-16.2-32.8-17.2-68.1-2.8-102.2 1.1-2.6 2.2-4.9 3.1-6.8l13-26.9-79-78.9c-22.1-22.1-35-47.7-38.4-76-4.6-37.5 6.5-72.3 31.9-100.8 2.1-2.3 4.1-4.3 5.8-6l1-1 80.8-80.8-13.3-27.8c-13-27.1-16.5-54.4-10.5-81.2 7.9-35.5 29-63.5 61.2-81.2 2.7-1.4 5.1-2.6 7.1-3.5l276.8-132.3 27.7-57.4q53.1-109.9 106.2-219.8c13-27 32.2-46.9 56.8-59q6.3-3.1 12.8-5.5 6.6-2.4 13.3-4 6.8-1.6 13.7-2.5 6.9-0.8 13.9-0.8 6.2 0 12.3 0.6 6.1 0.7 12.2 1.9 6 1.3 11.9 3.1 5.9 1.9 11.5 4.3c2.9 1.2 5.3 2.4 7.3 3.4l1.1 0.5 26.4 12.8 79.1-79.3c22.1-22.1 47.7-35.1 76-38.5q2.1-0.3 4.1-0.4 2.1-0.2 4.2-0.4 2.1-0.1 4.2-0.1 2-0.1 4.1-0.1c31.7 0 60.2 11.2 84.7 33.3 2.3 2.1 4.4 4.2 6 5.9l1.1 1.1 80.2 80.2 27.8-13.3c18.6-8.9 37.3-13.4 55.8-13.4q3.2 0 6.4 0.2 3.2 0.2 6.4 0.5 3.2 0.4 6.3 0.9 3.2 0.5 6.3 1.2c35.7 8 63.9 29.3 81.5 61.8 1.5 2.7 2.7 5.2 3.6 7.2l0.6 1.3 131.7 275.5 59.7 28.8 216.2 104.4c27 13 46.9 32.2 59 56.8 16.2 32.8 17.1 68.2 2.8 102.2-1.2 2.8-2.4 5.3-3.4 7.3l-0.7 1.3-12.1 25.1 22.8 22.8 56.5 56.4c22.8 22.8 36 49.3 39.4 78.6 0.3 3.4 0.5 6.6 0.6 8.9 0 0.6 0.1 1.3 0.1 1.9l0.1 1.5v1.5c-0.5 34-12.4 63.5-35.4 87.5-1.5 1.6-3 3-4.3 4.4l-80.9 80.9 13 27.1c13.3 28 16.9 56.1 10.5 83.8-0.8 3.2-1.6 6.1-2.3 8.2q-0.2 0.9-0.5 1.7l-0.4 1.5-0.5 1.4c-11.3 30.7-31.6 53.6-60.1 68q-2.6 1.3-5.3 2.6l-277.5 132.6-27.6 57.1q-52.5 108.7-105 217.5c-13.5 27.9-33.3 48.3-58.8 60.6-3 1.4-5.9 2.5-7.9 3.4q-0.9 0.3-1.6 0.6l-1.5 0.6-1.4 0.5q-4.9 1.7-9.8 2.9-5 1.3-10.1 2.1-5 0.8-10.1 1.3-5.1 0.4-10.2 0.4-6.5 0-13-0.7-6.5-0.7-12.8-2.1-6.4-1.4-12.6-3.5-6.1-2.1-12-4.8-2.6-1.2-5.2-2.5l-25.3-12.2-79.5 79.6c-22.1 22.1-47.6 35.1-75.9 38.6q-2.1 0.2-4.2 0.4-2.1 0.2-4.2 0.3-2.1 0.2-4.2 0.2-2.1 0.1-4.2 0.1z"/>
		<path id="FondoCuadrado3" class="s1" d="m1841 939.4c-0.4 23.7-8.3 43.6-24.3 60.4q-1.9 2-3.8 3.9-404.2 404.2-808.3 808.4c-14.7 14.7-31.7 24.6-52.5 27.2-26.6 3.2-49.8-4.3-69.7-22.2-1.7-1.6-3.3-3.3-5-4.9q-404.3-404.4-808.7-808.7c-14.7-14.7-24.5-31.7-27-52.5-3.2-26.5 4.4-49.5 22-69.3 1.7-1.8 3.5-3.6 5.2-5.3q404.2-404.3 808.4-808.6c14.8-14.7 31.7-24.5 52.5-27.1 26.7-3.2 49.8 4.4 69.7 22.3 2 1.8 3.8 3.7 5.6 5.5q403.7 403.7 807.4 807.3c15.4 15.4 25.4 33 27.9 54.8 0.4 3.1 0.4 6.2 0.6 8.8z"/>
		<g id="Intersecciones">
			<path id="Forma 1" class="s2" d="m1633.6 961.6l76.1 150.6-257.5 230z"/>
			<path id="Forma 1 copy" class="s2" d="m1455 541l257.5 230-76.1 150.6z"/>
			<path id="Forma 1 copy 2" class="s2" d="m920.6 1633.4l-150.6 76.1-230-257.5z"/>
			<path id="Forma 1 copy 3" class="s2" d="m1341.2 1454.7l-230 257.5-150.6-76.1z"/>
			<path id="Forma 1 copy 4" class="s2" d="m246.1 918.6l-76.1-150.6 257.5-230z"/>
			<path id="Forma 1 copy 5" class="s2" d="m426.5 1342.6l-257.5-230 76.1-150.6z"/>
			<path id="Forma 1 copy 6" class="s2" d="m963 249.1l150.6-76.1 230 257.5z"/>
			<path id="Forma 1 copy 7" class="s2" d="m539 429.5l230-257.5 150.6 76.1z"/>
		</g>
		<path id="Cuadrado1" class="s3" d="m1976 227"/>
		<path id="Cuadrado1" class="s3" d="m1841 939.4c-0.4 23.7-8.3 43.6-24.3 60.4q-1.9 2-3.8 3.9-404.2 404.2-808.3 808.4c-14.7 14.7-31.7 24.6-52.5 27.2-26.6 3.2-49.8-4.3-69.7-22.2-1.7-1.6-3.3-3.3-5-4.9q-404.3-404.4-808.7-808.7c-14.7-14.7-24.5-31.7-27-52.5-3.2-26.5 4.4-49.5 22-69.3 1.7-1.8 3.5-3.6 5.2-5.3q404.2-404.3 808.4-808.6c14.8-14.7 31.7-24.5 52.5-27.1 26.7-3.2 49.8 4.4 69.7 22.3 2 1.8 3.8 3.7 5.6 5.5q403.7 403.7 807.4 807.3c15.4 15.4 25.4 33 27.9 54.8 0.4 3.1 0.4 6.2 0.6 8.8z"/>
		<path id="Cuadrado2" class="s3" d="m1742.6 1222.6c-7.7 21-21.1 36.3-40.6 46.1q-2.3 1.2-4.6 2.3-487.1 232.8-974.2 465.6c-17.7 8.5-35.9 12-55.2 7.7-24.8-5.5-43-19.5-55.1-41.7-1-1.9-2-3.9-2.9-5.9q-232.8-487.3-465.7-974.6c-8.5-17.7-11.9-35.9-7.6-55.2 5.5-24.6 19.4-42.7 41.4-54.8 2-1.1 4.2-2.1 6.3-3.1q487.2-232.8 974.3-465.7c17.7-8.5 35.9-11.9 55.3-7.6 24.7 5.5 43 19.5 55 41.7 1.2 2.2 2.2 4.5 3.3 6.7q232.4 486.5 465 972.9c8.8 18.6 12.2 37.4 7.6 57.6-0.7 2.8-1.6 5.6-2.3 8z"/>
		<path id="Cuadrado3" class="s3" d="m1220.8 1742c-21.2 7-41.5 6.1-61.4-2.9q-2.3-1.1-4.7-2.2-486.1-234.8-972.2-469.6c-17.7-8.5-31.8-20.5-40.5-38.3-11.2-22.8-11.7-45.8-1.9-69 0.9-2 1.8-4 2.8-6q234.9-486.3 469.8-972.6c8.6-17.7 20.7-31.7 38.5-40.5 22.5-11 45.4-11.5 68.6-1.9 2.1 0.9 4.2 2 6.3 3q486.2 234.9 972.4 469.7c17.7 8.5 31.8 20.6 40.5 38.4 11.2 22.7 11.6 45.7 1.8 69-1 2.3-2.1 4.5-3.2 6.7q-234.5 485.5-469 971c-8.9 18.5-21.5 33-40.1 41.9-2.7 1.3-5.4 2.3-7.7 3.3z"/>
	</g>
	<path id="Control" fill-rule="evenodd" class="s4" d="m1089.3 611.1c0 0 113-5 147.4 60.1q3.6 2.4 7 5c0 0 125.6 207.7 159.4 337.5 36.5 140.3-6.9 185.4-63.8 199.5 0 0-100.9-116.8-155.6-158.2-53.5-40.5-88.4-41.3-88.4-41.3 0 0-80 0.1-155-0.1-75 0.2-155.1 0.1-155.1 0.1 0 0-34.9 0.8-88.4 41.3-54.7 41.4-155.6 158.2-155.6 158.2-56.9-14.1-100.3-59.2-63.7-199.5 33.8-129.8 159.3-337.5 159.3-337.5q3.4-2.6 7-5c34.4-65.1 147.4-60.1 147.4-60.1 3.5 6.8 14.3 13.8 22.2 18.2 46.2-2.2 91.2-0.6 125.7-0.6q0.3-0.1 0.7-0.1 0.2 0 0.5 0 0.2 0 0.5 0 0.3 0 0.6 0.1c34.5 0 79.5-1.6 125.7 0.6 7.9-4.4 18.7-11.4 22.2-18.2zm24.8 271.7c-1.5-28.4-26.5-51.1-56.1-51.1-29.6 0-53 22.7-52.4 51.1 0.5 29 25.7 52.8 56.1 52.8 30.5 0 53.9-23.8 52.4-52.8zm21.9-126.4c-1-15.6-15.4-28.1-32.3-28.1-16.9 0-30.1 12.5-29.4 28.1 0.6 15.8 15.1 28.7 32.3 28.7 17.2 0 30.4-12.9 29.4-28.7zm54.5-51.6c-1.2-15.1-15.7-27.2-32.3-27.2-16.7 0-29.4 12.1-28.5 27.2 0.9 15.3 15.4 27.8 32.3 27.8 17 0 29.7-12.5 28.5-27.8zm8.5 107.9c-1.3-16.1-16.2-29.1-33.4-29.1-17.2 0-30.3 13-29.4 29.1 1 16.4 16 29.7 33.5 29.7 17.5 0 30.6-13.3 29.3-29.7zm54.5-52.6c-1.6-16.1-16.9-29-34.3-29-17.3 0-30.4 12.9-29.1 29 1.3 16.2 16.6 29.4 34.3 29.4 17.7 0 30.7-13.2 29.1-29.4zm-483.7-3c1.4-26.3-20.5-47.3-48.9-47.3-28.5 0-53.3 21-55.6 47.3-2.3 26.9 19.5 48.9 48.9 48.9 29.3 0 54.2-22 55.6-48.9zm122.8 135.2c0.1-7.6-1.1-15-3.4-21.8h-43.5l0.9-41.3c-7.1-2.3-14.7-3.6-22.6-3.6-7.8 0-15.5 1.2-22.7 3.5l-1.9 42.8h-44.3c-2.5 6.4-4 13.3-4.4 20.4-0.4 7.9 0.5 15.5 2.7 22.5l42.6-0.2-1.9 42.8c7.7 2.8 16.2 4.4 25.1 4.4 8 0 15.8-1.3 23-3.6l1.6-43.6 44.8-0.4c2.5-6.9 3.9-14.3 4-21.9z"/>
	<path id="PyGame Text" class="s4" aria-label="GiGame"  d="m741.4 1193.3l0.2 66.3q0 3.4-2.6 6-2.4 2.4-5.8 2.4h-63.4q-4.8 0-9.1-3.8-4-3.9-4-8.6v-122.8q0-4.8 3.5-8.6 3.9-4.1 8.7-4.1h63.4q8.6 0 8.6 9.6 0 9.8-8.6 9.8h-37.8q-3.1 0-5.8 2.4-2.4 2.4-2.4 5.7v91.9q0 8.6 13.7 8.6 13.4 0 13.4-8.6v-46.2q0-5.7 4-9.1 4.1-3.6 10.1-3.6 5.7 0 9.8 3.6 4.1 3.4 4.1 9.1zm40.2-61q0 12.7-18 12.7-11.7 0-11.7-19.6 0-12.7 18-12.7 11.7 0 11.7 19.6zm0 40.7l0.2 95h-29.9v-95q0-6 4.3-9.6 4.6-3.6 10.5-3.6 6.3 0 10.6 3.6 4.3 3.6 4.3 9.6zm94.8 20.3l0.2 66.3q0 3.4-2.6 6-2.4 2.4-5.8 2.4h-63.4q-4.8 0-9.1-3.8-4.1-3.9-4.1-8.6v-122.8q0-4.8 3.6-8.6 3.9-4.1 8.6-4.1h63.5q8.6 0 8.6 9.6 0 9.8-8.6 9.8h-37.9q-3.1 0-5.7 2.4-2.4 2.4-2.4 5.7v91.9q0 8.6 13.7 8.6 13.4 0 13.4-8.6v-46.2q0-5.7 4-9.1 4.1-3.6 10.1-3.6 5.7 0 9.8 3.6 4.1 3.4 4.1 9.1zm95-20.1v94.8h-75.7q-3.6 0-6.2-2.6-2.6-2.9-2.6-6.3v-43q0-11 8.4-11 4.3 0 23.2-0.3 14.1-0.2 23.2 0 0-1.9 0.2-5.5 0.3-3.8 0.3-5.7 0-12.7-10.8-12.7h-36.4q-8.1 0-8.1-11.7 0-3.4 2.1-5.8 2.4-2.6 5.8-2.6h63.4q4.5 0 8.9 3.8 4.3 3.8 4.3 8.6zm-29.7 63.4q0-11.9-7.4-11.9h-18.5q-8.3 0-8.3 12.4 0 11.8 8.3 11.8l18.5 0.2q7.4 0 7.4-12.5zm182.8-63.6v81.8q0 13.2-20.6 13.2-1.1 0-4.7 0-2.7 0-4.6 0l0.3-80.2q0-8.1-13-8.1-11.9 0-11.9 8.1v79.7q-4.8 0-14.6 0.3-9.8 0.2-14.9 0.2v-0.5h-0.2v-79.2q0-8.1-11.7-8.1-13.2 0-13.2 8.1v79.7h-29.7v-107.7h126.6q5.1 0 8.6 4.1 3.6 3.8 3.6 8.6zm98.2-3.4v43.1q0 11-8.4 11-4.3 0-23.2 0.3-14.2 0.2-23.3 0v15.5q0 3.4 3.4 6 3.6 2.4 6.9 2.4h36.4q8.4 0 8.4 10.5 0 9.6-8.1 9.6h-63.5q-4.5 0-8.8-3.8-4.3-3.9-4.3-8.6v-82.1q0-4.8 3.6-8.6 3.8-4.1 8.6-4.1h63.4q3.6 0 6.2 2.9 2.7 2.6 2.7 5.9zm-20.9 18.5q0-3.4-2.4-5.8-2.1-2.4-5.5-2.4-3.1 0-7.6-0.2-4.6 0-6.2 0-7 0-9.6 3.1-2.7 2.9-2.7 13.4v8.4l33.8-0.3q0.2-16.2 0.2-16.2z"/>
	<path id="acm UD Text" class="s4" aria-label="acm UD"  d="m1073.5 1125.4v28.6h-22.8q-1.1 0-1.9-0.8-0.8-0.9-0.8-1.9v-13q0-3.3 2.5-3.3 1.3 0 7-0.1 4.3 0 7 0 0-0.5 0.1-1.6 0.1-1.2 0.1-1.7 0-3.9-3.3-3.9h-10.9q-2.5 0-2.5-3.5 0-1 0.6-1.7 0.8-0.8 1.8-0.8h19.1q1.4 0 2.7 1.1 1.3 1.2 1.3 2.6zm-9 19.1q0-3.6-2.2-3.6h-5.6q-2.5 0-2.5 3.8 0 3.5 2.5 3.5l5.6 0.1q2.2 0 2.2-3.8zm38.3 7q0 1-0.7 1.8-0.7 0.7-1.7 0.7h-19.1q-1.5 0-2.8-1.2-1.2-1.1-1.2-2.6v-24.7q0-1.5 1.1-2.6 1.1-1.2 2.6-1.2h19.1q1 0 1.7 0.8 0.8 0.7 0.8 1.7 0 3.3-2.5 3.3h-11.4q-0.9 0-1.7 0.7-0.7 0.8-0.7 1.8v15.4q0 1 1 1.8 1 0.7 2.1 0.7h10.9q2.5 0 2.5 3.6zm44.7-26.2v24.7q0 4-6.2 4-0.3 0-1.4 0-0.8 0-1.4 0l0.1-24.2q0-2.4-3.9-2.4-3.6 0-3.6 2.4v24.1q-1.5 0-4.4 0-3 0.1-4.5 0.1v-0.1h-0.1v-23.9q0-2.5-3.5-2.5-4 0-4 2.5v24h-8.9v-32.5h38.2q1.5 0 2.6 1.2 1 1.2 1 2.6zm45.1-12.4v37q0 1.4-1.2 2.7-1.1 1.1-2.5 1.1h-19.5q-1 0-1.8-0.7-0.7-0.8-0.7-1.8v-39.6q0-1.1 0.7-1.8 0.7-0.7 1.7-0.7 3.4 0 3.4 2.5v33.8q0 1 0.7 1.8 0.8 0.7 1.8 0.7h6q1 0 1.7-0.8 0.7-0.7 0.7-1.7 0-2.4 0.2-6.5 0.1-4.6 0.1-6.5 0.1-3.7 0-9.7-0.1-7.4-0.1-9.6 0-4.1 4.1-4.1 1.9 0 3.2 1 1.5 1.1 1.5 2.9zm29.6 0.3v37q0 1.4-1.1 2.6-1 1.2-2.5 1.2h-21.9l0.1-44.6h21.7q1.4 0 2.5 1.2 1.2 1.2 1.2 2.6zm-9 32.2v-27.7q0-2.5-3.9-2.5-3.6 0-3.6 2.5v27.7q0 1.3 1.5 2 1.1 0.6 2.6 0.6 3.4 0 3.4-2.6z"/>
</svg>